<svg xmlns="http://www.w3.org/2000/svg" width="1440" height="900" viewBox="0 0 1440 900" role="img" aria-label="Face Recognition System web app preview">
  <rect width="1440" height="900" fill="#f4f7fb"/>
  <rect x="150" y="72" width="1140" height="756" rx="8" fill="#ffffff" stroke="#dbe3ee"/>
  <text x="210" y="180" font-family="Arial, sans-serif" font-size="70" font-weight="700" fill="#17202a">Face Recognition System</text>
  <text x="212" y="238" font-family="Arial, sans-serif" font-size="24" fill="#4d5d6c">Train and test a local recognizer with consent-based image data.</text>
  <rect x="940" y="128" width="250" height="300" rx="8" fill="#0f766e"/>
  <ellipse cx="1065" cy="278" rx="76" ry="96" fill="#f8d6b3"/>
  <circle cx="1038" cy="252" r="9" fill="#17202a"/>
  <circle cx="1092" cy="252" r="9" fill="#17202a"/>
  <path d="M1038 314 Q1065 342 1092 314" fill="none" stroke="#17202a" stroke-width="8" stroke-linecap="round"/>
  <g font-family="Arial, sans-serif">
    <rect x="210" y="500" width="300" height="210" rx="8" fill="#f8fafc" stroke="#dbe3ee"/>
    <text x="238" y="552" font-size="25" font-weight="700" fill="#17202a">Dataset</text>
    <text x="238" y="612" font-size="52" font-weight="700" fill="#0f766e">8</text>
    <rect x="238" y="650" width="178" height="42" rx="6" fill="#0f766e"/>
    <text x="265" y="678" font-size="18" font-weight="700" fill="#ffffff">Generate Demo</text>
    <rect x="570" y="500" width="300" height="210" rx="8" fill="#f8fafc" stroke="#dbe3ee"/>
    <text x="598" y="552" font-size="25" font-weight="700" fill="#17202a">Training</text>
    <text x="598" y="612" font-size="42" font-weight="700" fill="#0f766e">2 people</text>
    <rect x="598" y="650" width="132" height="42" rx="6" fill="#1d4ed8"/>
    <text x="628" y="678" font-size="18" font-weight="700" fill="#ffffff">Train</text>
    <rect x="930" y="500" width="300" height="210" rx="8" fill="#f8fafc" stroke="#dbe3ee"/>
    <text x="958" y="552" font-size="25" font-weight="700" fill="#17202a">Recognition</text>
    <rect x="958" y="650" width="162" height="42" rx="6" fill="#0f766e"/>
    <text x="987" y="678" font-size="18" font-weight="700" fill="#ffffff">Recognize</text>
  </g>
</svg>
